<svg xmlns="http://www.w3.org/2000/svg" aria-hidden="true" style="position:absolute;width:0;height:0;overflow:hidden"><defs><symbol id="icon-envelope-2" viewBox="0 0 43 32"><path fill="#757575" d="M38.667 0H4C1.794 0 0 1.794 0 4v24c0 2.206 1.794 4 4 4h34.667c2.206 0 4-1.794 4-4V4c0-2.206-1.794-4-4-4zm0 2.667c.181 0 .353.038.511.103L21.334 18.236 3.49 2.77a1.32 1.32 0 0 1 .511-.103h34.667zm0 26.666H4A1.334 1.334 0 0 1 2.667 28V5.587L20.46 21.008a1.335 1.335 0 0 0 1.748 0L40.001 5.587V28c0 .736-.598 1.333-1.333 1.333z" style="fill:var(--color1, #757575)"/></symbol><symbol id="icon-instagram-3" viewBox="0 0 32 32"><path fill="#afb1b8" d="M31.969 9.408c-.075-1.7-.35-2.869-.744-3.882a7.806 7.806 0 0 0-1.851-2.838A7.867 7.867 0 0 0 26.542.844C25.523.45 24.36.175 22.66.1 20.947.019 20.403 0 16.059 0s-4.888.019-6.595.094c-1.7.075-2.869.35-3.882.744a7.803 7.803 0 0 0-2.838 1.85A7.867 7.867 0 0 0 .9 5.52C.506 6.539.231 7.702.156 9.402c-.081 1.713-.1 2.257-.1 6.601s.019 4.888.094 6.595c.075 1.7.35 2.869.744 3.882a7.895 7.895 0 0 0 1.85 2.838 7.867 7.867 0 0 0 2.832 1.844c1.019.394 2.182.669 3.882.744 1.706.075 2.25.094 6.595.094s4.888-.019 6.595-.094c1.7-.075 2.869-.35 3.882-.744a8.184 8.184 0 0 0 4.682-4.682c.394-1.019.669-2.182.744-3.882.075-1.707.094-2.251.094-6.595s-.006-4.888-.081-6.595zm-2.882 13.065c-.069 1.563-.331 2.407-.55 2.969a5.31 5.31 0 0 1-3.038 3.038c-.563.219-1.413.481-2.969.55-1.688.075-2.194.094-6.464.094s-4.782-.019-6.464-.094c-1.563-.069-2.407-.331-2.969-.55a4.926 4.926 0 0 1-1.838-1.194 4.974 4.974 0 0 1-1.194-1.838c-.219-.563-.481-1.413-.55-2.969-.075-1.688-.094-2.194-.094-6.464s.019-4.782.094-6.464c.069-1.563.331-2.407.55-2.969a4.868 4.868 0 0 1 1.2-1.838A4.974 4.974 0 0 1 6.639 3.55c.563-.219 1.413-.481 2.969-.55 1.688-.075 2.194-.094 6.464-.094 4.276 0 4.782.019 6.464.094 1.563.069 2.407.331 2.969.55a4.914 4.914 0 0 1 1.838 1.194 4.974 4.974 0 0 1 1.194 1.838c.219.563.481 1.413.55 2.969.075 1.688.094 2.194.094 6.464s-.019 4.77-.094 6.458z" style="fill:var(--color2, #afb1b8)"/><path fill="#afb1b8" d="M16.059 7.783c-4.538 0-8.22 3.682-8.22 8.22s3.682 8.22 8.22 8.22 8.22-3.682 8.22-8.22-3.682-8.22-8.22-8.22zm0 13.552a5.333 5.333 0 0 1 0-10.664 5.333 5.333 0 0 1 0 10.664zM26.524 7.458a1.919 1.919 0 1 1-3.838 0 1.919 1.919 0 0 1 3.838 0z" style="fill:var(--color2, #afb1b8)"/></symbol><symbol id="icon-client-6" viewBox="0 0 38 32"><path fill="#afb1b8" d="M19.348 15.474a1.176 1.176 0 0 1-.241-.792v-1.148c0-.352.08-.619.239-.802s.434-.274.822-.273c.365 0 .624.078.778.234a.956.956 0 0 1 .23.687v.27h-.653v-.273a1.406 1.406 0 0 0-.019-.267.258.258 0 0 0-.093-.159.375.375 0 0 0-.237-.062.404.404 0 0 0-.249.065.303.303 0 0 0-.108.175 1.359 1.359 0 0 0-.026.284v1.393a.717.717 0 0 0 .084.391c.033.041.078.074.13.095s.111.028.168.022a.355.355 0 0 0 .231-.063.282.282 0 0 0 .097-.169c.015-.092.022-.186.02-.279v-.283h.653v.258c.018.255-.061.509-.226.722-.15.171-.406.256-.782.256s-.66-.091-.821-.28zM22.067 15.486c-.165-.179-.247-.439-.247-.784v-1.207c0-.341.083-.599.247-.774s.441-.262.828-.261c.384 0 .659.087.824.261s.249.433.249.774v1.207c0 .341-.084.602-.252.782s-.441.27-.821.27c-.38 0-.661-.091-.828-.269zm1.132-.29a.671.671 0 0 0 .078-.357v-1.478a.653.653 0 0 0-.077-.35c-.033-.042-.079-.076-.133-.096s-.114-.028-.172-.021c-.059-.007-.118 0-.173.021s-.101.054-.134.096a.645.645 0 0 0-.078.35v1.485a.667.667 0 0 0 .078.357c.038.038.085.068.138.089a.455.455 0 0 0 .336 0 .39.39 0 0 0 .138-.089v-.007zM24.753 12.494h.703l.529 2.228.541-2.228h.684l.069 3.215h-.506l-.054-2.235-.522 2.235h-.406l-.541-2.243-.05 2.243h-.511l.064-3.215zM28.068 12.494h1.095c.631 0 .947.304.947.913 0 .583-.332.874-.997.873h-.373v1.429h-.676l.004-3.215zm.936 1.375c.067.007.135.002.199-.015s.123-.047.173-.086a.516.516 0 0 0 .097-.363.997.997 0 0 0-.033-.292c-.01-.032-.026-.062-.05-.088s-.052-.048-.085-.065a.688.688 0 0 0-.302-.051h-.262v.961h.262zM31.085 12.494h.726l.745 3.215h-.63l-.147-.741h-.648l-.152.741h-.64l.745-3.215zm.621 2.102-.253-1.35-.253 1.35h.506zM33.158 12.494h.473l.906 1.834v-1.834h.561v3.215h-.45l-.911-1.915v1.915h-.58l.001-3.215zM36.413 14.484l-.753-1.985h.634l.46 1.275.431-1.275h.621l-.744 1.985v1.226h-.649v-1.226zM20.392 17.116v.168h-.552v1.306h-.231v-1.306h-.554v-.168h1.338zM22.121 18.59h-.178a.08.08 0 0 1-.05-.014.082.082 0 0 1-.03-.034l-.16-.35h-.765l-.16.35a.11.11 0 0 1-.024.04.08.08 0 0 1-.05.014h-.178l.676-1.475h.235l.684 1.469zm-1.119-.547h.638l-.27-.6a1.003 1.003 0 0 1-.05-.139l-.026.078-.024.062-.268.599zM23.287 18.445a.76.76 0 0 0 .332-.044l.091-.036v-.332h-.27c-.007 0-.013-.001-.02-.003a.046.046 0 0 1-.027-.021.037.037 0 0 1-.003-.015v-.113h.525v.565a1.077 1.077 0 0 1-.285.12 1.195 1.195 0 0 1-.169.03 2.17 2.17 0 0 1-.198.009 1.033 1.033 0 0 1-.341-.055.837.837 0 0 1-.27-.154.702.702 0 0 1-.236-.54.689.689 0 0 1 .235-.542.834.834 0 0 1 .27-.153 1.31 1.31 0 0 1 .551-.042c.055.008.109.02.161.037a.774.774 0 0 1 .253.135l-.065.091a.065.065 0 0 1-.053.028.079.079 0 0 1-.042-.012.73.73 0 0 1-.066-.035.87.87 0 0 0-.648-.045.523.523 0 0 0-.325.3.695.695 0 0 0 0 .492.577.577 0 0 0 .333.303.778.778 0 0 0 .268.029zM25.443 18.422h.738v.168h-.964v-1.475h.231l-.005 1.306zM26.95 18.59h-.231v-1.475h.231v1.475zM27.81 17.122a.106.106 0 0 1 .035.027l.989 1.112a.468.468 0 0 1 0-.053v-1.099h.201v1.481h-.116a.12.12 0 0 1-.05-.008.125.125 0 0 1-.036-.028l-.987-1.11v1.147h-.193v-1.475h.12c.013 0 .026.002.038.007zM30.738 17.116v.162h-.82v.487h.664v.156h-.664v.503h.82v.162H29.68v-1.471h1.058zM6.504 8.009l10.269 2.517v8.821L6.504 16.831V8.009zm-.659-.752v10.002L17.43 20.1V10.099L5.845 7.257z" style="fill:var(--color2, #afb1b8)"/><path fill="#afb1b8" d="M12.054 24.743.468 21.9V11.899l11.586 2.842v10.002z" style="fill:var(--color2, #afb1b8)"/><path fill="#afb1b8" d="m6.037 7.895 10.135 2.486-4.31 3.722-10.136-2.487 4.311-3.721zm-.192-.638L.468 11.899l11.586 2.842 5.376-4.642L5.845 7.257zM12.706 24.18l4.724-4.079-4.724-1.159v5.239z" style="fill:var(--color2, #afb1b8)"/></symbol><symbol id="icon-client-5" viewBox="0 0 32 32"><path fill="#afb1b8" d="M2.861 23.378a.719.719 0 0 1 .184.489c.006.116-.016.232-.065.339s-.124.202-.219.279a1.318 1.318 0 0 1-.827.226H.48v-3.1h1.424c.281-.017.56.056.789.206.092.07.165.16.213.26s.07.21.063.32a.68.68 0 0 1-.165.474.78.78 0 0 1-.433.242.841.841 0 0 1 .491.265zm-1.705-.468h.609a.617.617 0 0 0 .387-.103c.046-.038.081-.085.104-.137s.032-.109.027-.165a.361.361 0 0 0-.129-.303.626.626 0 0 0-.399-.104h-.599v.813zm1.055 1.188c.049-.039.087-.087.112-.142s.036-.114.032-.173c.004-.06-.008-.12-.033-.175s-.065-.104-.114-.143a.673.673 0 0 0-.414-.112h-.638v.853h.647a.68.68 0 0 0 .409-.108zM5.772 24.71l-.792-1.212h-.298v1.212h-.681v-3.1h1.29c.325-.021.647.073.898.264.18.168.289.39.307.625s-.057.468-.211.658a1.077 1.077 0 0 1-.615.315l.844 1.239h-.741zm-1.09-1.634h.557c.387 0 .581-.157.581-.47a.433.433 0 0 0-.142-.348.645.645 0 0 0-.438-.126h-.564l.007.943zM9.496 24.086H8.138l-.24.624h-.714l1.247-3.065h.772l1.242 3.065h-.714l-.235-.624zm-.181-.469-.496-1.308-.496 1.308h.992zM14.159 24.71h-.676l-1.517-2.108v2.108h-.675v-3.1h.675l1.517 2.12v-2.12h.676v3.1zM18.019 23.968c-.14.234-.353.424-.612.547a2.146 2.146 0 0 1-.951.195h-1.204v-3.1h1.204c.329-.008.655.058.951.191.259.119.472.308.612.541.139.252.212.531.212.813s-.073.561-.212.813zm-.774-.074c.193-.206.299-.468.299-.74s-.106-.534-.299-.74a1.253 1.253 0 0 0-.847-.264h-.47v2.007h.47c.309.018.613-.077.847-.264zM9.92 4.368s8.731 3.018 8.546 7.386v7.387s-8.724-3.02-8.542-7.387l-.003-7.386zM26.244 17.411a12.66 12.66 0 0 1 5.547-1.872v-2.312c-2.294.81-4.24 2.277-5.547 4.184z" style="fill:var(--color2, #afb1b8)"/><path fill="#afb1b8" d="M25.253 18.108c1.35-2.488 3.689-4.408 6.538-5.365V6.08S19.357 10.379 19.62 16.599v10.517s.554-.192 1.426-.553c0-.336 0-.675.04-1.016.257-2.887 1.757-5.563 4.168-7.439z" style="fill:var(--color2, #afb1b8)"/><path fill="#afb1b8" d="M24.071 22.015c.065-.729.211-1.451.435-2.153-1.502 1.62-2.411 3.63-2.6 5.747-.018.2-.028.4-.033.606.706-.31 1.528-.698 2.392-1.154a10.024 10.024 0 0 1-.194-3.045zM24.565 22.052a9.532 9.532 0 0 0 .154 2.758c3.397-1.861 7.214-4.737 7.067-8.212v-.303c-2.427.249-4.698 1.22-6.464 2.765a9.633 9.633 0 0 0-.757 2.992z" style="fill:var(--color2, #afb1b8)"/></symbol><symbol id="icon-client-4" viewBox="0 0 34 32"><path fill="#afb1b8" d="M.258 21.663c.003 1.01.456 1.977 1.259 2.692s1.892 1.117 3.029 1.12c1.136-.003 2.225-.405 3.028-1.119s1.256-1.681 1.26-2.691v-5.569s-8.575.849-8.575 5.568zm4.287.998c-.222 0-.439-.058-.624-.168s-.329-.265-.413-.448c-.085-.182-.107-.383-.064-.577s.15-.371.307-.511.357-.235.575-.273.444-.019.649.057c.205.076.38.203.504.367a.916.916 0 0 1-.138 1.262c-.104.093-.228.167-.365.217s-.283.076-.431.076v-.004zM6.704 11.637h-.001c-1.176 0-2.129.847-2.129 1.892v.001c0 1.045.953 1.892 2.129 1.892h.001c1.176 0 2.129-.847 2.129-1.892v-.001c0-1.045-.953-1.892-2.129-1.892zM13.211 22.111h-.827v.855h-.431v-2.092h1.362v.349h-.931v.54h.827v.348zm2.072-.143c0 .206-.036.387-.109.542s-.177.275-.313.359a.862.862 0 0 1-.465.127.831.831 0 0 1-.78-.481 1.212 1.212 0 0 1-.113-.534v-.103c0-.206.037-.387.111-.543a.829.829 0 0 1 .781-.487.85.85 0 0 1 .464.127.823.823 0 0 1 .315.36c.075.156.112.337.112.542v.093zm-.437-.095c0-.219-.039-.386-.118-.5s-.191-.171-.336-.171a.382.382 0 0 0-.335.17c-.079.112-.118.277-.119.494v.102c0 .213.039.379.118.497s.192.177.339.177a.379.379 0 0 0 .333-.17c.078-.114.117-.28.118-.497v-.102zm1.835.544c0-.081-.029-.144-.086-.187s-.161-.09-.31-.138a2.255 2.255 0 0 1-.355-.144c-.238-.128-.356-.301-.356-.519 0-.113.032-.213.095-.302.064-.089.156-.158.274-.208s.254-.075.402-.075c.149 0 .283.027.399.082s.207.13.271.228a.599.599 0 0 1 .098.336h-.431c0-.096-.03-.17-.091-.223-.06-.054-.145-.08-.254-.08-.105 0-.188.022-.246.067s-.088.102-.088.175c0 .068.034.125.102.171s.17.089.303.129c.245.074.424.165.536.274s.168.245.168.408a.509.509 0 0 1-.205.427c-.137.102-.321.154-.553.154-.161 0-.307-.029-.44-.088s-.233-.14-.303-.243a.62.62 0 0 1-.103-.356h.432c0 .231.138.346.414.346.102 0 .182-.02.24-.062s.086-.101.086-.175zm2.3-1.193h-.641v1.743h-.431v-1.743h-.632v-.349h1.704v.349zm1.505.836h-.827v.56h.971v.346h-1.402v-2.092h1.399v.349h-.968v.498h.827v.338zm1.171.14h-.343v.766h-.431v-2.092h.777c.247 0 .437.055.572.165s.201.266.201.467c0 .143-.031.262-.093.358s-.155.171-.28.227l.452.855v.02h-.463l-.392-.766zm-.343-.349h.348c.108 0 .192-.027.251-.082s.089-.132.089-.228c0-.099-.028-.176-.085-.233s-.141-.085-.257-.085h-.346v.628zm2.611.378v.737h-.431v-2.092h.816c.157 0 .295.029.414.086s.212.139.276.246a.681.681 0 0 1 .096.361c0 .205-.07.367-.211.486s-.334.177-.582.177h-.378zm0-.349h.385c.114 0 .201-.027.26-.08s.091-.13.091-.23c0-.102-.03-.185-.091-.249s-.144-.096-.25-.098h-.395v.656zm2.727.18h-.827v.56h.971v.346h-1.402v-2.092h1.399v.349h-.968v.498h.827v.338zm1.999-.836h-.641v1.743h-.431v-1.743h-.632v-.349h1.704v.349zm1.506.836h-.827v.56h.971v.346h-1.402v-2.092h1.399v.349h-.968v.498h.827v.338zm1.171.14h-.343v.766h-.431v-2.092h.777c.247 0 .437.055.572.165s.201.266.201.467c0 .143-.031.262-.093.358s-.155.171-.28.227l.452.855v.02h-.463l-.392-.766zm-.344-.349h.348c.108 0 .192-.027.251-.082s.089-.132.089-.228c0-.099-.028-.176-.085-.233s-.141-.085-.257-.085h-.346v.628zm2.533.566c0-.081-.029-.144-.086-.187s-.161-.09-.31-.138a2.255 2.255 0 0 1-.355-.144c-.237-.128-.356-.301-.356-.519 0-.113.032-.213.095-.302.064-.089.156-.158.274-.208s.254-.075.402-.075c.149 0 .283.027.399.082s.207.13.272.228a.599.599 0 0 1 .098.336h-.431c0-.096-.03-.17-.09-.223-.06-.054-.145-.08-.254-.08-.105 0-.187.022-.246.067s-.088.102-.088.175c0 .068.034.125.102.171s.17.089.303.129c.245.074.424.165.536.274s.168.245.168.408a.506.506 0 0 1-.205.427c-.137.102-.321.154-.553.154-.161 0-.307-.029-.44-.088s-.233-.14-.303-.243a.62.62 0 0 1-.103-.356h.432c0 .231.138.346.414.346.102 0 .182-.02.24-.062s.086-.101.086-.175zM22.419 11.033c-.003-1.451-.653-2.842-1.808-3.869s-2.72-1.604-4.353-1.608c-1.634.003-3.2.58-4.355 1.607s-1.806 2.418-1.809 3.87v8.004s12.324-1.22 12.325-8.002v-.001z" style="fill:var(--color2, #afb1b8)"/></symbol><symbol id="icon-client-3" viewBox="0 0 32 32"><path fill="#afb1b8" d="M6.155 27.332c.009 0 .019.002.027.006s.017.008.023.014l.13.124c-.101.1-.225.18-.364.235-.163.06-.339.088-.516.084a1.371 1.371 0 0 1-.485-.079 1.05 1.05 0 0 1-.365-.222.982.982 0 0 1-.236-.343 1.134 1.134 0 0 1-.082-.44 1.016 1.016 0 0 1 .34-.784c.11-.096.243-.173.388-.223.159-.054.329-.081.5-.079.159-.003.316.021.464.072.128.049.246.116.348.198l-.108.132a.155.155 0 0 1-.027.024.068.068 0 0 1-.044.009.107.107 0 0 1-.047-.014l-.058-.035-.081-.045a1.018 1.018 0 0 0-.108-.044 1.128 1.128 0 0 0-.339-.049 1.036 1.036 0 0 0-.359.059.753.753 0 0 0-.464.43.875.875 0 0 0-.066.348.9.9 0 0 0 .066.354c.04.097.101.186.18.263a.728.728 0 0 0 .269.163.963.963 0 0 0 .333.056c.066.001.132-.003.197-.011a.782.782 0 0 0 .427-.181.102.102 0 0 1 .061-.023zM9.892 26.711c.002.149-.028.298-.087.437-.053.127-.136.243-.244.339s-.238.173-.382.223a1.573 1.573 0 0 1-.983 0 1.145 1.145 0 0 1-.38-.223 1.001 1.001 0 0 1-.246-.343 1.144 1.144 0 0 1 0-.875c.055-.128.139-.245.246-.345.108-.093.238-.167.38-.215.316-.107.667-.107.983 0 .144.051.274.127.382.223.107.098.189.213.244.339.06.141.09.29.087.44zm-.34 0a.921.921 0 0 0-.061-.351.725.725 0 0 0-.446-.429 1.135 1.135 0 0 0-.715 0 .76.76 0 0 0-.273.166.688.688 0 0 0-.174.263 1.035 1.035 0 0 0 0 .703.733.733 0 0 0 .447.428c.231.075.484.075.715 0a.771.771 0 0 0 .273-.165.73.73 0 0 0 .173-.263.921.921 0 0 0 .061-.351zM12.441 27.08l.034.079.037-.079a.99.99 0 0 1 .042-.078l.826-1.306c.017-.023.031-.037.047-.041a.222.222 0 0 1 .068-.007h.244v2.124h-.29v-1.627a.445.445 0 0 1 0-.073l-.831 1.324c-.011.02-.027.037-.049.049s-.046.018-.071.018h-.047c-.025 0-.05-.006-.071-.017s-.038-.029-.049-.049l-.855-1.332v1.704h-.28V25.65h.244a.222.222 0 0 1 .068.007c.02.009.036.023.046.041l.844 1.307a.376.376 0 0 1 .042.076zM15.551 26.973v.796h-.324v-2.121h.721c.136-.002.272.014.403.046a.797.797 0 0 1 .284.132.55.55 0 0 1 .162.208.643.643 0 0 1 .055.272.599.599 0 0 1-.234.484.823.823 0 0 1-.286.141 1.347 1.347 0 0 1-.39.049l-.391-.006zm0-.227h.391a.92.92 0 0 0 .251-.032.55.55 0 0 0 .181-.091.413.413 0 0 0 .149-.32c.003-.059-.007-.118-.032-.173s-.064-.104-.113-.145a.7.7 0 0 0-.435-.114h-.391v.874zM19.9 27.772h-.255a.116.116 0 0 1-.071-.02.141.141 0 0 1-.042-.049l-.22-.513h-1.105l-.228.513a.12.12 0 0 1-.114.069h-.255l.971-2.124h.336l.983 2.124zm-1.602-.788h.912l-.385-.864a1.452 1.452 0 0 1-.073-.2l-.037.111c-.011.034-.024.064-.035.09l-.382.863zM21.297 25.658c.02.009.036.023.049.038l1.415 1.601v-1.649h.29v2.124h-.162a.161.161 0 0 1-.066-.012.158.158 0 0 1-.052-.04l-1.414-1.599a.445.445 0 0 1 0 .073v1.577h-.29v-2.124h.171c.02 0 .04.003.058.009zM25.435 26.927v.843h-.324v-.843l-.895-1.279h.29a.122.122 0 0 1 .07.018.2.2 0 0 1 .044.048l.56.825a1.083 1.083 0 0 1 .099.188l.042-.091a.62.62 0 0 1 .055-.097l.551-.831a.224.224 0 0 1 .042-.045.108.108 0 0 1 .07-.021h.293l-.896 1.284zM12.281 22.085c.141.015.283.028.427.04 2.182-.849 4.029-2.237 5.308-3.992s1.935-3.799 1.885-5.876l-2.405-2.09c.489 2.211.26 4.497-.661 6.602s-2.498 3.946-4.555 5.316z" style="fill:var(--color2, #afb1b8)"/><path fill="#afb1b8" d="m11.422 21.987.064.011c2.197-1.365 3.873-3.273 4.81-5.474s1.092-4.597.444-6.876l-3.426-2.976c1.385 2.446 1.944 5.185 1.608 7.896s-1.549 5.285-3.501 7.42zM23.041 14.711c-.582 2.283-1.996 4.34-4.031 5.869-.594.449-1.235.849-1.915 1.194 1.657-.423 3.181-1.171 4.453-2.187s2.258-2.271 2.883-3.671l-1.39-1.206z" style="fill:var(--color2, #afb1b8)"/><path fill="#afb1b8" d="m22.496 14.375-1.979-1.719c-.038 1.959-.679 3.874-1.857 5.546s-2.85 3.039-4.841 3.958h.009c.444 0 .887-.023 1.328-.069 1.861-.66 3.506-1.71 4.786-3.057s2.158-2.947 2.553-4.66zM11.709 5.416l-2.36-2.054c-2.11.708-3.924 1.953-5.206 3.573s-1.971 3.537-1.978 5.502c.008 2.171.849 4.279 2.39 5.988s3.695 2.923 6.12 3.449c2.164-2.292 3.431-5.123 3.618-8.082s-.719-5.894-2.584-8.376zM27.949 14.058c-.009-2.576-1.19-5.045-3.287-6.867s-4.938-2.848-7.904-2.856a12.56 12.56 0 0 0-4.007.648l14.45 12.555a8.507 8.507 0 0 0 .747-3.48z" style="fill:var(--color2, #afb1b8)"/></symbol><symbol id="icon-client-2" viewBox="0 0 32 32"><path fill="#afb1b8" d="M14.268 1.561h-.082c-.126-.008-.252-.01-.378-.014h-.273c-.238 0-.481.006-.723.018a.253.253 0 0 0-.055 0 16.997 16.997 0 0 0-6.31 1.609l-.259.125v13.284l.607-.206c.532-.183 1.1-.347 1.688-.501a20.573 20.573 0 0 1 4.857-.645v1.745c-.217.002-.428.008-.639.018h-.05a19.408 19.408 0 0 0-3.736.573c-1.55.388-3.046.971-4.452 1.735V2.265A17.8 17.8 0 0 1 9.133.366a17.868 17.868 0 0 1 4.401-.567h.257c.306.008.606.021.887.043.739.052 1.474.169 2.193.349v1.718a13.592 13.592 0 0 0-2.125-.32l-.043-.004c-.148-.012-.296-.025-.435-.025zm3.023 1.757c.381.029.776.043 1.174.043a18.9 18.9 0 0 0 4.627-.593c1.55-.39 3.044-.973 4.45-1.736v16.734a17.882 17.882 0 0 1-4.672 1.899c-1.439.37-2.917.56-4.401.566a13.423 13.423 0 0 1-3.339-.394V2.996c.258.06.524.115.794.16.443.074.911.13 1.366.163zm8.517.129-.607.205c-.558.187-1.121.355-1.688.505a20.58 20.58 0 0 1-5.044.647c-.396 0-.76-.01-1.113-.033l-.484-.032v13.665l.416.037c.386.033.784.051 1.184.051a16.136 16.136 0 0 0 3.972-.514 16.704 16.704 0 0 0 3.104-1.115l.259-.125V3.45zM5.643 25.127a.884.884 0 0 0-.675-.273.987.987 0 0 0-.694.273.99.99 0 0 0-.265.682v2.276c-.006.16.025.32.09.466.054.117.131.22.228.305a.804.804 0 0 0 .312.162c.111.031.225.047.34.047a.966.966 0 0 0 .943-.959v-.255h-.595v.203a.52.52 0 0 1-.035.203.361.361 0 0 1-.086.128.395.395 0 0 1-.125.066.381.381 0 0 1-.125.021c-.053.006-.107-.002-.156-.023s-.092-.055-.123-.099a.528.528 0 0 1-.078-.305v-2.122a.728.728 0 0 1 .072-.34.308.308 0 0 1 .291-.138.315.315 0 0 1 .265.128.493.493 0 0 1 .099.305v.197h.589v-.232a1.064 1.064 0 0 0-.272-.718zM9.178 25.101a1.055 1.055 0 0 0-.677-.25 1.023 1.023 0 0 0-.669.25.912.912 0 0 0-.23.319c-.06.139-.09.289-.086.441v2.184c-.004.154.025.306.086.447a.898.898 0 0 0 .23.305c.091.084.197.15.314.193a1.023 1.023 0 0 0 1.032-.193.924.924 0 0 0 .224-.305 1.04 1.04 0 0 0 .086-.447v-2.184a1.09 1.09 0 0 0-.086-.441.99.99 0 0 0-.224-.319zM8.9 28.044c.005.058-.003.117-.023.172s-.053.104-.095.144a.435.435 0 0 1-.56 0c-.042-.041-.074-.09-.095-.144s-.029-.113-.023-.172V25.86c-.005-.058.003-.117.023-.172s.053-.104.095-.144a.435.435 0 0 1 .56 0c.041.041.074.09.095.144s.029.113.023.172v2.184zM13.82 29.019v-4.133h-.572l-.751 2.188h-.01l-.757-2.188h-.566v4.133h.591v-2.514h.01l.579 1.778h.294l.583-1.778h.01v2.514h.591zM17.175 25.176a.814.814 0 0 0-.334-.226 1.323 1.323 0 0 0-.428-.064h-.877v4.133h.589v-1.614h.304c.184.008.367-.031.531-.113a.845.845 0 0 0 .323-.316.989.989 0 0 0 .135-.36c.023-.156.034-.312.032-.47a2.349 2.349 0 0 0-.058-.591.883.883 0 0 0-.217-.38zm-.304 1.26a.508.508 0 0 1-.055.215.324.324 0 0 1-.152.145.603.603 0 0 1-.277.052h-.269v-1.405h.304a.56.56 0 0 1 .265.052.333.333 0 0 1 .138.152.57.57 0 0 1 .051.23v.275c0 .096.006.195 0 .284h-.006zM19.964 24.886h-.483l-.911 4.133h.589l.173-.888h.803l.173.888h.589l-.934-4.133zm-.543 2.682.29-1.498h.01l.288 1.498h-.589zM23.77 27.376h-.01l-.889-2.49h-.566v4.133h.589v-2.486h.012l.9 2.486h.554v-4.133h-.589v2.49zM27.368 24.886l-.474 1.643h-.012l-.474-1.643h-.624l.809 2.386v1.747h.589v-1.747l.809-2.386h-.624zM4.001 30.186h.284v.796h.193v-.796h.283v-.164h-.759v.164zM6.387 30.023l-.372.959h.205l.078-.218h.382l.082.218h.209l-.381-.959h-.205zm-.031.579.131-.355.131.355h-.261zM8.745 30.628h.222v.123a.364.364 0 0 1-.228.08.242.242 0 0 1-.204-.091.406.406 0 0 1-.072-.25c0-.214.092-.32.277-.32a.201.201 0 0 1 .217.152l.189-.037c-.041-.187-.176-.282-.407-.282a.48.48 0 0 0-.335.123c-.049.047-.086.105-.109.169s-.033.132-.029.2a.525.525 0 0 0 .123.36.47.47 0 0 0 .364.141.583.583 0 0 0 .407-.152v-.378h-.416v.162zM11.154 30.023h-.195v.959h.672v-.164h-.478v-.796zM13.19 30.023h-.195v.959h.195v-.959zM15.181 30.663l-.393-.641h-.189v.959h.181v-.627l.386.627h.193v-.959h-.178v.641zM16.982 30.56h.478v-.164h-.478v-.211h.515v-.164h-.709v.959h.729v-.164h-.534v-.259zM21.347 30.401h-.378v-.378h-.193v.959h.193v-.419h.378v.419h.193v-.959h-.193v.378zM23.158 30.56h.48v-.164h-.48v-.211h.516v-.164h-.709v.959h.727v-.164h-.534v-.259zM25.613 30.56c.167-.026.252-.115.252-.267a.232.232 0 0 0-.094-.213.546.546 0 0 0-.281-.056h-.407v.959h.193v-.401h.038a.254.254 0 0 1 .119.021.19.19 0 0 1 .068.07l.209.305h.23l-.117-.187a.669.669 0 0 0-.212-.23zm-.194-.133h-.142v-.241h.152a.476.476 0 0 1 .195.023c.014.012.025.028.033.045s.01.036.01.055c0 .019-.006.037-.015.053s-.021.031-.037.041a.561.561 0 0 1-.195.023zM27.465 30.56h.478v-.164h-.478v-.211h.516v-.164h-.71v.959H28v-.164h-.534v-.259z" style="fill:var(--color2, #afb1b8)"/></symbol><symbol id="icon-client-1" viewBox="0 0 32 32"><path fill="#afb1b8" d="m7.296 2.655 4.066 3.85L3.815 6.5v18.676h19.728v-7.141l4.062 3.845V2.655H7.297zm16.068 14.928L11.835 6.669h11.529v10.914zm-3.579 4.861H6.937V9.883h.908v11.71h11.94v.85zm-9.814 5.219-.474.977-.474-.977h-.398l.693 1.303v.759h.359v-.759l.691-1.303h-.396zm.596 2.062.167-.481h.799l.169.481h.374l-.781-2.063h-.322l-.779 2.063h.373zm.567-1.625.299.855h-.598l.299-.855zm1.89.806a.466.466 0 0 0-.078.262c0 .174.061.315.183.424s.286.161.49.161.38-.056.527-.166l.117.137h.4l-.303-.359c.119-.163.178-.371.178-.625h-.299a.828.828 0 0 1-.086.378l-.398-.471.14-.102a.76.76 0 0 0 .214-.215.45.45 0 0 0 .065-.238.426.426 0 0 0-.144-.327.521.521 0 0 0-.368-.133.544.544 0 0 0-.396.142.503.503 0 0 0-.147.383c0 .066.015.134.047.205s.088.157.169.258c-.153.11-.256.205-.308.285zm.93.456a.522.522 0 0 1-.325.116c-.103 0-.185-.03-.247-.09s-.092-.137-.092-.232c0-.11.056-.209.17-.295l.044-.031.45.532zm-.369-.913c-.097-.12-.146-.22-.146-.299 0-.069.02-.126.059-.171s.093-.068.16-.068a.21.21 0 0 1 .154.058.179.179 0 0 1 .061.137.255.255 0 0 1-.088.2l-.044.035-.157.108zm3.357 1.12a.748.748 0 0 0 .244-.515h-.357c-.019.147-.064.253-.134.316s-.176.095-.317.095c-.154 0-.271-.059-.351-.176s-.119-.288-.119-.51v-.183c.002-.22.044-.386.127-.5a.42.42 0 0 1 .359-.171c.134 0 .236.033.305.1.07.065.113.171.13.32h.357c-.022-.226-.103-.4-.242-.524s-.322-.186-.55-.186c-.169 0-.318.04-.447.12s-.227.195-.296.342-.103.32-.103.515v.193c.003.19.039.356.106.5s.164.254.289.333a.806.806 0 0 0 .435.116c.235 0 .424-.061.565-.184zm2.106-.289c.07-.153.105-.33.105-.532v-.115a1.244 1.244 0 0 0-.108-.528.79.79 0 0 0-.748-.471.82.82 0 0 0-.447.123c-.129.081-.23.198-.302.353s-.106.332-.106.532v.116c.001.197.037.371.108.523s.173.268.303.35a.835.835 0 0 0 .447.122.823.823 0 0 0 .447-.122c.13-.083.23-.2.3-.351zm-.384-1.166c.087.122.13.297.13.525v.108c0 .232-.043.409-.129.53a.42.42 0 0 1-.366.181c-.157 0-.279-.062-.368-.186s-.132-.299-.132-.525v-.119c.002-.222.046-.393.133-.515s.21-.183.364-.183c.159 0 .281.061.367.183z" style="fill:var(--color2, #afb1b8)"/></symbol><symbol id="icon-linkedin-1" viewBox="0 0 32 32"><path fill="#afb1b8" d="M31.992 32v-.001H32V20.263c0-5.741-1.236-10.164-7.948-10.164-3.227 0-5.392 1.771-6.276 3.449h-.093v-2.913h-6.364v21.364h6.627V21.42c0-2.785.528-5.479 3.977-5.479 3.399 0 3.449 3.179 3.449 5.657v10.401h6.62zM.528 10.636h6.635V32H.528V10.636zM3.843 0C1.722 0 0 1.721 0 3.843s1.721 3.879 3.843 3.879c2.121 0 3.843-1.757 3.843-3.879A3.846 3.846 0 0 0 3.843 0z" style="fill:var(--color2, #afb1b8)"/></symbol><symbol id="icon-facebook-1" viewBox="0 0 32 32"><path fill="#afb1b8" d="M21.329 5.313h2.921V.225C23.746.156 22.013 0 19.994 0c-4.212 0-7.097 2.649-7.097 7.519V12H8.249v5.688h4.648V32h5.699V17.689h4.46l.708-5.688h-5.169V8.082c.001-1.644.444-2.769 2.735-2.769z" style="fill:var(--color2, #afb1b8)"/></symbol><symbol id="icon-twitter-1" viewBox="0 0 32 32"><path fill="#afb1b8" d="M32 6.078c-1.19.522-2.458.868-3.78 1.036a6.523 6.523 0 0 0 2.886-3.626 13.11 13.11 0 0 1-4.16 1.588A6.574 6.574 0 0 0 22.154 3c-3.632 0-6.556 2.948-6.556 6.562 0 .52.044 1.02.152 1.496-5.454-.266-10.28-2.88-13.522-6.862a6.605 6.605 0 0 0-.898 3.316 6.57 6.57 0 0 0 2.914 5.452 6.479 6.479 0 0 1-2.964-.808v.072c0 3.188 2.274 5.836 5.256 6.446a6.548 6.548 0 0 1-1.72.216 5.8 5.8 0 0 1-1.242-.112c.85 2.598 3.262 4.508 6.13 4.57a13.182 13.182 0 0 1-8.134 2.798c-.538 0-1.054-.024-1.57-.09A18.469 18.469 0 0 0 10.064 29c12.072 0 18.672-10 18.672-18.668 0-.29-.01-.57-.024-.848A13.087 13.087 0 0 0 32 6.078z" style="fill:var(--color2, #afb1b8)"/></symbol><symbol id="icon-astronaut-1" viewBox="0 0 32 32"><path fill="#2196f3" d="M31.974 4.524a.534.534 0 0 0-.43-.363l-1.91-.278-.855-1.731c-.179-.365-.777-.365-.956 0l-.855 1.731-1.91.278a.535.535 0 0 0-.296.91l1.383 1.348-.326 1.903c-.034.2.048.402.212.522a.53.53 0 0 0 .562.04l1.709-.899 1.709.899a.536.536 0 0 0 .775-.563l-.326-1.903 1.383-1.348a.536.536 0 0 0 .135-.547zm-2.463 1.327a.534.534 0 0 0-.153.472l.191 1.114-1-.526a.533.533 0 0 0-.498 0l-1.001.526.191-1.114a.534.534 0 0 0-.153-.472l-.81-.789 1.119-.163a.532.532 0 0 0 .402-.292l.5-1.013.5 1.013a.535.535 0 0 0 .402.292l1.119.163-.809.789zM26.134 20.522h-1.067v1.067h1.067v-1.067zM26.134 22.656h-1.067v1.067h1.067v-1.067zM27.2 21.589h-1.067v1.067H27.2v-1.067zM25.067 21.589H24v1.067h1.067v-1.067zM22.4 26.389h-1.067v1.067H22.4v-1.067zM22.4 28.522h-1.067v1.067H22.4v-1.067zM23.467 27.456H22.4v1.067h1.067v-1.067zM21.333 27.456h-1.067v1.067h1.067v-1.067zM16 24.256h-1.067v1.067H16v-1.067zM16 26.389h-1.067v1.067H16v-1.067zM17.067 25.322H16v1.067h1.067v-1.067zM14.933 25.322h-1.067v1.067h1.067v-1.067zM5.867 6.122H4.8v1.067h1.067V6.122zM5.867 8.255H4.8v1.067h1.067V8.255z" style="fill:var(--color3, #2196f3)"/><path fill="#2196f3" d="M6.933 7.189H5.866v1.067h1.067V7.189zM4.8 7.189H3.733v1.067H4.8V7.189z" style="fill:var(--color3, #2196f3)"/><path fill="#212121" d="M24.715 14.159a1.775 1.775 0 0 0-1.188-.705 1.778 1.778 0 0 0-1.34.352l-1.252.96-1.898 1.417-1.358-.541c2.421-1.086 4.114-3.508 4.114-6.32 0-3.823-3.123-6.933-6.961-6.933s-6.961 3.11-6.961 6.933a6.86 6.86 0 0 0 1.12 3.758l-2.764-.024h-.005c-.009 0-.015.004-.023.005a.515.515 0 0 0-.155.031l-.038.013c-.006.003-.013.003-.019.006l-3.233 1.596-.001.001-1.893.911a.397.397 0 0 0-.063.035 1.779 1.779 0 0 0-.598 2.295c.22.429.595.745 1.056.889a1.776 1.776 0 0 0 1.378-.128l1.388-.738 2.264-1.169 1.357-.008L2.2 22.211l-.002.001-1.339 1.333c-.316.315-.49.732-.49 1.178s.174.863.49 1.179c.325.323.752.485 1.179.485s.854-.162 1.18-.485l1.314-1.309 1.741-1.3.901.897-1.762 1.754-.002.001-1.339 1.333c-.316.315-.49.732-.49 1.178s.174.863.49 1.179c.325.323.753.485 1.18.485s.855-.162 1.18-.485l3.482-3.467.001-.002 1.01-1-.004-.004c.006-.006.015-.009.022-.015l5.166-5.658 3.471.494a.52.52 0 0 0 .262-.033c.018-.006.033-.015.05-.023.019-.01.039-.015.058-.027l3.213-2.133c.012-.008.018-.021.029-.029.013-.01.029-.014.041-.026l1.271-1.191c.662-.62.753-1.635.212-2.362zM2.13 17.77a.714.714 0 0 1-.558.052.717.717 0 0 1-.213-1.26l1.314-.632.449 1.312-.992.528zm3.498-1.828-1.548.8-.439-1.283 2.027-1.001-.04 1.484zm15.099-6.62a5.79 5.79 0 0 1-.599 2.559l-4.181-1.899a1.863 1.863 0 0 0-.788-1.388l1.464-4.86c2.378.756 4.105 2.974 4.105 5.588zm-11.789 0c0-3.235 2.644-5.867 5.894-5.867.253 0 .5.021.745.052l-1.432 4.754c-.019-.001-.037-.006-.057-.006-1.033 0-1.873.837-1.873 1.867s.84 1.867 1.873 1.867c.694 0 1.294-.383 1.618-.945l3.862 1.755a5.894 5.894 0 0 1-4.737 2.39c-3.25 0-5.894-2.632-5.894-5.867zm5.956.8c0 .441-.362.8-.806.8s-.806-.359-.806-.8c0-.441.362-.8.806-.8s.806.359.806.8zM2.465 25.146a.608.608 0 0 1-.854.001.592.592 0 0 1 0-.844l.962-.958.851.848-.959.955zm3.214 3.734a.608.608 0 0 1-.855.001.592.592 0 0 1 0-.844l.963-.959.852.848-.96.955zm3.481-3.469-.002.001-1.765 1.76-.852-.848 1.763-1.755.002-.001c.04-.04.065-.088.09-.135.007-.014.02-.026.026-.04.017-.041.019-.085.026-.129.003-.025.014-.047.014-.073 0-.036-.013-.07-.02-.106-.006-.032-.006-.065-.019-.095a.55.55 0 0 0-.091-.138c-.01-.012-.014-.027-.025-.038h-.001l-.001-.002-1.607-1.6c-.017-.017-.039-.024-.058-.038a.507.507 0 0 0-.087-.058.515.515 0 0 0-.093-.033.507.507 0 0 0-.103-.02.5.5 0 0 0-.095.005.53.53 0 0 0-.104.02.477.477 0 0 0-.094.045c-.02.011-.042.015-.061.029L4.23 23.486l-.901-.897 2.399-2.386 4.361 4.289-.928.919zm6.819-7.017c-.015-.002-.03.004-.045.003a.556.556 0 0 0-.3.075.492.492 0 0 0-.083.061c-.013.011-.028.017-.04.029l-4.698 5.146-4.328-4.257 2.833-2.818a.534.534 0 0 0-.379-.911v-.001l-2.219.013.028-1.607 3.104.027a6.947 6.947 0 0 0 4.981 2.101c.437 0 .864-.045 1.279-.123.04.032.079.065.13.085l2.41.96.331 1.644-3.003-.427zm4.041.178-.313-1.558 1.446-1.08.947 1.257-2.08 1.381zm3.754-2.831-.838.785-.931-1.236.831-.637a.735.735 0 0 1 .543-.143.718.718 0 0 1 .48.284.713.713 0 0 1-.085.947z" style="fill:var(--color4, #212121)"/><path fill="#212121" d="m13.602 18.544-2.143-2.133a.534.534 0 0 0-.753 0l-2.142 2.133a.537.537 0 0 0 0 .756l2.142 2.133a.536.536 0 0 0 .753 0l2.143-2.133a.535.535 0 0 0 0-.756zm-2.519 1.759-1.387-1.381 1.387-1.381 1.387 1.381-1.387 1.381zM17.164 5.071l-.258 1.036c.071.018 1.738.452 1.738 2.149h1.067c0-2.017-1.666-2.965-2.547-3.185zM19.711 9.322h-1.067v1.067h1.067V9.322z" style="fill:var(--color4, #212121)"/></symbol><symbol id="icon-diagram-1" viewBox="0 0 32 32"><path fill="#2196f3" d="M14.926 14.965h1.066v4.798h-1.066v-4.797zM19.19 17.097h1.066v2.665H19.19v-2.665zM10.661 18.696h1.066v1.066h-1.066v-1.066zM7.463 18.163h1.066v1.599H7.463v-1.599z" style="fill:var(--color3, #2196f3)"/><path fill="#212121" d="M1.599 28.291h25.587a1.6 1.6 0 0 0 1.599-1.599V24.56a1.6 1.6 0 0 0-1.599-1.599h-.533V9.668L29.681 6.8a1.608 1.608 0 1 0-.746-.763L26.654 8.2V6.97a1.6 1.6 0 0 0-1.599-1.599H3.733A1.6 1.6 0 0 0 2.134 6.97v15.992h-.533a1.6 1.6 0 0 0-1.599 1.599v2.132a1.6 1.6 0 0 0 1.599 1.599zM30.384 4.837a.533.533 0 1 1 0 1.067.533.533 0 0 1 0-1.067zM3.198 6.969c0-.294.239-.533.533-.533h21.322c.294 0 .533.239.533.533v2.239l-1.066 1.013V8.035a.533.533 0 0 0-.533-.533H4.797a.533.533 0 0 0-.533.533v13.326c0 .294.239.533.533.533h19.19a.533.533 0 0 0 .533-.533v-9.674l1.066-1.01v12.284H3.198V6.969zm4.798 6.93a1.598 1.598 0 1 0 1.107 2.749l1.853.93a.532.532 0 0 0 .636-.123l3.939-4.431 3.872 2.901a.533.533 0 0 0 .686-.039l3.365-3.188v8.131H5.33V8.569h18.124v2.66l-3.771 3.572-3.904-2.927a.533.533 0 0 0-.718.072l-3.993 4.493-1.493-.746c.011-.064.018-.129.02-.193a1.6 1.6 0 0 0-1.599-1.599zm.533 1.599a.533.533 0 1 1-1.067 0 .533.533 0 0 1 1.067 0zm3.198 8.529h5.331v.533a.533.533 0 0 1-.533.533h-4.264a.533.533 0 0 1-.533-.533v-.533zm-10.661.533c0-.294.239-.533.533-.533h9.062v.533a1.6 1.6 0 0 0 1.599 1.599h4.264a1.6 1.6 0 0 0 1.599-1.599v-.533h9.062c.294 0 .533.239.533.533v2.132a.533.533 0 0 1-.533.533H1.598a.533.533 0 0 1-.533-.533V24.56z" style="fill:var(--color4, #212121)"/></symbol><symbol id="icon-clock-1" viewBox="0 0 32 32"><path fill="#212121" d="M31.297 15.301C31.295 6.849 24.442-.002 15.989 0S.686 6.855.688 15.308a15.304 15.304 0 0 0 10.649 14.576.662.662 0 0 0 .529-.065.637.637 0 0 0 .283-.356l3.865-12.25a1.912 1.912 0 1 0-.84-3.635l-5.106-5.107a.637.637 0 0 0-.902.902l5.103 5.109a1.876 1.876 0 0 0 .536 2.309l-3.683 11.673C3.844 25.783.118 17.71 2.799 10.432S13.553-.572 20.831 2.109s11.004 10.754 8.323 18.032a14.042 14.042 0 0 1-7.462 7.973l-.398-1.874a.638.638 0 0 0-1.048-.344l-3.837 3.426a.637.637 0 0 0 .231 1.084l4.899 1.563a.638.638 0 0 0 .819-.74l-.391-1.839a15.255 15.255 0 0 0 9.329-14.089zm-15.305-.637a.638.638 0 1 1 0 1.277.638.638 0 0 1 0-1.277zm2.101 14.864 2.184-1.948.603 2.84-2.787-.892z" style="fill:var(--color4, #212121)"/><path fill="#2196f3" d="M15.354 3.185V4.46a.638.638 0 1 0 1.276 0V3.185a.638.638 0 0 0-1.276 0zM3.876 14.664a.638.638 0 0 0 0 1.276h1.275a.638.638 0 1 0 0-1.276H3.876zM28.108 15.939a.638.638 0 1 0 0-1.276h-1.275a.638.638 0 0 0 0 1.276h1.275z" style="fill:var(--color3, #2196f3)"/></symbol><symbol id="icon-antenna-1" viewBox="0 0 32 32"><path fill="#212121" d="m30.773 22.098-8.443-8.505.937-4.615c.242.094.499.144.758.146h.006a2.159 2.159 0 1 0-2.008-1.435l-4.96.605L8.972.161a.534.534 0 0 0-.377-.16.532.532 0 0 0-.373.155L6.709 1.66a.534.534 0 0 0 0 .754l.814.826a14.943 14.943 0 0 0 2.519 17.663.513.513 0 0 0 .146.098c-.034.18-.051.364-.052.547v6.187h-6.4a2.67 2.67 0 0 0-2.667 2.667v1.067c0 .295.239.533.533.533h24.533a.533.533 0 0 0 .533-.533v-1.067a2.67 2.67 0 0 0-2.667-2.667h-6.4v-2.742a15.09 15.09 0 0 0 3.049.32 14.854 14.854 0 0 0 7.04-1.783l.818.823a.534.534 0 0 0 .377.16.532.532 0 0 0 .373-.155l1.513-1.504a.534.534 0 0 0 0-.754zM23.28 6.233a1.066 1.066 0 1 1 .752 1.822h-.003a1.067 1.067 0 0 1-.747-1.823h-.002zm-1.256 3.505-.598 2.946-1.175-1.182 1.774-1.763zm-.605-.902-1.92 1.909-1.485-1.493 3.405-.415zM24.004 28.8a1.6 1.6 0 0 1 1.6 1.6v.533H2.137V30.4a1.6 1.6 0 0 1 1.6-1.6h20.267zm-7.467-2.133v1.067h-5.333v-1.067h5.333zM11.204 25.6v-4.053c0-1.294 1.196-2.347 2.667-2.347s2.667 1.053 2.667 2.347V25.6h-5.333zm6.4-1.696v-2.357c0-1.882-1.675-3.413-3.733-3.413a3.8 3.8 0 0 0-3.281 1.786A13.87 13.87 0 0 1 8.311 4.033l18.602 18.708a13.818 13.818 0 0 1-9.309 1.163zm11.289-.684L7.836 2.039l.755-.752 7.935 7.98c.004 0 .006.007.01.01l13.115 13.191-.757.752z" style="fill:var(--color4, #212121)"/><path fill="#2196f3" d="M13.876 20.267h-.005a1.6 1.6 0 1 0-.004 3.2h.005a1.6 1.6 0 1 0 .004-3.2zm.373 1.978a.534.534 0 0 1-.752-.756.534.534 0 0 1 .373-.155.532.532 0 0 1 .373.911h.005z" style="fill:var(--color3, #2196f3)"/></symbol><symbol id="icon-smartphone-1" viewBox="0 0 32 32"><path fill="#757575" d="M23.109-.25H8.89a3.05 3.05 0 0 0-3.047 3.047v26.406A3.05 3.05 0 0 0 8.89 32.25h14.219a3.05 3.05 0 0 0 3.047-3.047V2.797A3.05 3.05 0 0 0 23.109-.25zM8.891 1.781H23.11c.56 0 1.016.455 1.016 1.016v21.328H7.876V2.797c0-.56.455-1.016 1.016-1.016zm14.218 28.438H8.89c-.56 0-1.016-.455-1.016-1.016v-3.047h16.25v3.047c0 .56-.455 1.016-1.016 1.016z" style="fill:var(--color1, #757575)"/><path fill="#757575" d="M10.624 27.657c.397.37.397.971 0 1.341s-1.04.37-1.436 0c-.397-.37-.397-.971 0-1.341s1.04-.37 1.436 0z" style="fill:var(--color1, #757575)"/></symbol><symbol id="icon-linkedin-w" viewBox="0 0 32 32"><path fill="#fff" d="M31.992 32v-.001H32V20.263c0-5.741-1.236-10.164-7.948-10.164-3.227 0-5.392 1.771-6.276 3.449h-.093v-2.913h-6.364v21.364h6.627V21.42c0-2.785.528-5.479 3.977-5.479 3.399 0 3.449 3.179 3.449 5.657v10.401h6.62zM.528 10.636h6.635V32H.528V10.636zM3.843 0C1.722 0 0 1.721 0 3.843s1.721 3.879 3.843 3.879c2.121 0 3.843-1.757 3.843-3.879A3.846 3.846 0 0 0 3.843 0z" style="fill:var(--color5, #fff)"/></symbol><symbol id="icon-facebook-w" viewBox="0 0 32 32"><path fill="#fff" d="M21.329 5.313h2.921V.225C23.746.156 22.013 0 19.994 0c-4.212 0-7.097 2.649-7.097 7.519V12H8.249v5.688h4.648V32h5.699V17.689h4.46l.708-5.688h-5.169V8.082c.001-1.644.444-2.769 2.735-2.769z" style="fill:var(--color5, #fff)"/></symbol><symbol id="icon-twitter-w" viewBox="0 0 32 32"><path fill="#fff" d="M32 6.078c-1.19.522-2.458.868-3.78 1.036a6.523 6.523 0 0 0 2.886-3.626 13.11 13.11 0 0 1-4.16 1.588A6.574 6.574 0 0 0 22.154 3c-3.632 0-6.556 2.948-6.556 6.562 0 .52.044 1.02.152 1.496-5.454-.266-10.28-2.88-13.522-6.862a6.605 6.605 0 0 0-.898 3.316 6.57 6.57 0 0 0 2.914 5.452 6.479 6.479 0 0 1-2.964-.808v.072c0 3.188 2.274 5.836 5.256 6.446a6.548 6.548 0 0 1-1.72.216 5.8 5.8 0 0 1-1.242-.112c.85 2.598 3.262 4.508 6.13 4.57a13.182 13.182 0 0 1-8.134 2.798c-.538 0-1.054-.024-1.57-.09A18.469 18.469 0 0 0 10.064 29c12.072 0 18.672-10 18.672-18.668 0-.29-.01-.57-.024-.848A13.087 13.087 0 0 0 32 6.078z" style="fill:var(--color5, #fff)"/></symbol><symbol id="icon-instagram-w" viewBox="0 0 32 32"><path fill="#fff" d="M31.969 9.408c-.075-1.7-.35-2.869-.744-3.882a7.806 7.806 0 0 0-1.851-2.838A7.867 7.867 0 0 0 26.542.844C25.523.45 24.36.175 22.66.1 20.947.019 20.403 0 16.059 0s-4.888.019-6.595.094c-1.7.075-2.869.35-3.882.744a7.803 7.803 0 0 0-2.838 1.85A7.867 7.867 0 0 0 .9 5.52C.506 6.539.231 7.702.156 9.402c-.081 1.713-.1 2.257-.1 6.601s.019 4.888.094 6.595c.075 1.7.35 2.869.744 3.882a7.895 7.895 0 0 0 1.85 2.838 7.867 7.867 0 0 0 2.832 1.844c1.019.394 2.182.669 3.882.744 1.706.075 2.25.094 6.595.094s4.888-.019 6.595-.094c1.7-.075 2.869-.35 3.882-.744a8.184 8.184 0 0 0 4.682-4.682c.394-1.019.669-2.182.744-3.882.075-1.707.094-2.251.094-6.595s-.006-4.888-.081-6.595zm-2.882 13.065c-.069 1.563-.331 2.407-.55 2.969a5.31 5.31 0 0 1-3.038 3.038c-.563.219-1.413.481-2.969.55-1.688.075-2.194.094-6.464.094s-4.782-.019-6.464-.094c-1.563-.069-2.407-.331-2.969-.55a4.926 4.926 0 0 1-1.838-1.194 4.974 4.974 0 0 1-1.194-1.838c-.219-.563-.481-1.413-.55-2.969-.075-1.688-.094-2.194-.094-6.464s.019-4.782.094-6.464c.069-1.563.331-2.407.55-2.969a4.868 4.868 0 0 1 1.2-1.838A4.974 4.974 0 0 1 6.639 3.55c.563-.219 1.413-.481 2.969-.55 1.688-.075 2.194-.094 6.464-.094 4.276 0 4.782.019 6.464.094 1.563.069 2.407.331 2.969.55a4.914 4.914 0 0 1 1.838 1.194 4.974 4.974 0 0 1 1.194 1.838c.219.563.481 1.413.55 2.969.075 1.688.094 2.194.094 6.464s-.019 4.77-.094 6.458z" style="fill:var(--color5, #fff)"/><path fill="#fff" d="M16.059 7.783c-4.538 0-8.22 3.682-8.22 8.22s3.682 8.22 8.22 8.22c4.539 0 8.22-3.682 8.22-8.22s-3.682-8.22-8.22-8.22zm0 13.552a5.333 5.333 0 0 1 0-10.664 5.333 5.333 0 0 1 0 10.664zM26.524 7.458a1.919 1.919 0 1 1-3.838 0 1.919 1.919 0 0 1 3.838 0z" style="fill:var(--color5, #fff)"/></symbol></defs></svg>